<svg width="370" height="249" viewBox="0 0 370 249" fill="none" xmlns="http://www.w3.org/2000/svg">
<g clip-path="url(#clip0)">
<path d="M243.063 158.693C249.798 152.8 253.661 144.29 253.661 135.343V115.581C260.514 115.581 266.07 110.025 266.07 103.172V90.7622C266.07 83.9092 260.514 78.3528 253.661 78.3528H117.157C110.304 78.3528 104.748 83.9092 104.748 90.7622V103.172C104.748 110.025 110.304 115.581 117.157 115.581V135.343C117.157 144.29 121.02 152.8 127.755 158.693L166.795 192.855V199.63L127.755 233.795C121.02 239.685 117.157 248.195 117.157 257.141V276.904C110.304 276.904 104.748 282.46 104.748 289.313V301.723C104.748 308.576 110.304 314.132 117.157 314.132H253.661C260.514 314.132 266.07 308.576 266.07 301.723V289.313C266.07 282.46 260.514 276.904 253.661 276.904V257.141C253.661 248.195 249.798 239.685 243.063 233.795L204.023 199.63V192.855L243.063 158.693ZM117.157 90.7622H253.661V103.172H117.157V90.7622ZM129.567 115.581H241.251V135.343C241.245 139.415 239.9 143.372 237.425 146.605H133.396C130.918 143.372 129.573 139.415 129.567 135.343V115.581ZM253.661 301.723H117.157V289.313H253.661V301.723ZM195.852 208.976L234.892 243.138C238.931 246.671 241.248 251.776 241.251 257.141V276.904H129.567V257.141C129.57 251.776 131.887 246.671 135.926 243.138L174.966 208.976C177.662 206.616 179.207 203.211 179.204 199.63V192.855C179.207 189.274 177.662 185.869 174.966 183.512L146.972 159.014H223.879L195.883 183.512C193.177 185.863 191.62 189.271 191.614 192.855V199.63C191.614 203.211 193.159 206.616 195.852 208.976Z" fill="#A0B8B2"/>
<path d="M179.204 214.857H191.614V227.266H179.204V214.857Z" fill="#A0B8B2"/>
<path d="M179.204 239.676H191.614V252.085H179.204V239.676Z" fill="#A0B8B2"/>
<path d="M346.732 196.242C346.747 283.545 277.31 355.017 190.044 357.526C102.778 360.034 29.3518 292.667 24.3529 205.507C19.3509 118.35 84.5944 43.0271 171.573 35.5408L156.724 53.237L166.231 61.211L190.163 32.6687C192.365 30.042 192.026 26.1277 189.399 23.9251L160.857 0L152.904 9.53733L169.276 23.2859C75.8266 32.0022 6.19318 113.363 12.0131 207.04C17.8301 300.717 97.0008 372.835 190.811 369.917C284.621 366.999 359.156 290.098 359.141 196.242H346.732Z" fill="#A0B8B2"/>
<path d="M336.713 140.139L348.353 135.84C346.88 131.856 345.25 127.86 343.438 123.952L332.15 129.115C333.813 132.744 335.346 136.449 336.713 140.139Z" fill="#A0B8B2"/>
<path d="M264.922 41.7455C261.09 39.7732 257.166 37.9342 253.282 36.2861L248.426 47.7018C252.037 49.2408 255.685 50.9465 259.251 52.7825L264.922 41.7455Z" fill="#A0B8B2"/>
<path d="M346.459 186.744L358.868 186.017C358.614 181.73 358.205 177.431 357.626 173.217L345.323 174.856C345.838 178.764 346.217 182.76 346.459 186.744Z" fill="#A0B8B2"/>
<path d="M343.314 163.086L355.463 160.541C354.582 156.354 353.545 152.158 352.361 148.056L340.433 151.488C341.533 155.291 342.499 159.187 343.314 163.086Z" fill="#A0B8B2"/>
<path d="M313.748 98.4696L323.606 90.944C321.019 87.5477 318.271 84.203 315.435 81.0158L306.128 89.2534C308.785 92.2134 311.367 95.3157 313.748 98.4696Z" fill="#A0B8B2"/>
<path d="M326.785 118.459L337.649 112.461C335.583 108.737 333.356 105.014 331.029 101.442L320.634 108.222C322.794 111.537 324.867 114.96 326.785 118.459Z" fill="#A0B8B2"/>
<path d="M241.251 31.681C237.143 30.2904 232.993 29.0574 228.918 28.0031L225.815 40.0217C229.599 40.9942 233.453 42.1424 237.268 43.4331L241.251 31.681Z" fill="#A0B8B2"/>
<path d="M216.348 25.246C212.152 24.4977 207.865 23.8888 203.614 23.4404L202.33 35.7953C206.277 36.1982 210.252 36.7617 214.151 37.4646L216.348 25.246Z" fill="#A0B8B2"/>
<path d="M286.851 55.185C283.333 52.6583 279.734 50.2649 276.141 48.0623L269.657 58.6419C272.99 60.6808 276.341 62.9167 279.586 65.2677L286.851 55.185Z" fill="#A0B8B2"/>
<path d="M306.543 71.7088C303.48 68.7245 300.272 65.8252 297.009 63.0955L289.029 72.5964C292.062 75.1383 295.046 77.8377 297.906 80.6129L306.543 71.7088Z" fill="#A0B8B2"/>
</g>
<defs>
<clipPath id="clip0">
<rect width="370" height="370" fill="white"/>
</clipPath>
</defs>
</svg>
