<svg width="294" height="47" viewBox="0 0 294 47" fill="none" xmlns="http://www.w3.org/2000/svg">
<path d="M31.248 3.696C32.56 3.696 33.696 3.648 34.656 3.552L34.416 4.512C33.456 4.736 32.56 5.184 31.728 5.856C30.928 6.528 30.016 7.632 28.992 9.168L13.344 33.024C12.16 34.784 11.008 36.096 9.888 36.96C8.768 37.792 7.36 38.208 5.664 38.208C3.936 38.208 2.56 37.856 1.536 37.152C0.544 36.416 0.0320001 35.424 0 34.176C0 32.992 0.416 32.016 1.248 31.248C2.08 30.448 3.088 30.048 4.272 30.048C5.296 30.048 6.112 30.304 6.72 30.816C7.328 31.328 7.648 32.032 7.68 32.928C7.68 33.984 7.328 34.88 6.624 35.616C5.92 36.352 5.024 36.848 3.936 37.104C4.32 37.264 4.864 37.344 5.568 37.344C7.04 37.344 8.304 36.944 9.36 36.144C10.416 35.312 11.504 34.032 12.624 32.304L4.608 8.064C4.224 6.944 3.776 6.128 3.264 5.616C2.752 5.104 2.128 4.736 1.392 4.512L1.632 3.552C3.264 3.648 5.648 3.696 8.784 3.696C11.44 3.696 13.6 3.648 15.264 3.552L15.024 4.512C13.872 4.576 13.056 4.72 12.576 4.944C12.128 5.168 11.904 5.584 11.904 6.192C11.904 6.768 12.064 7.536 12.384 8.496L17.664 24.72L27.792 9.312C28.528 8.192 28.896 7.28 28.896 6.576C28.896 5.936 28.576 5.456 27.936 5.136C27.328 4.784 26.4 4.576 25.152 4.512L25.392 3.552C26.32 3.648 28.272 3.696 31.248 3.696Z" fill="#E6645C"/>
<path d="M42.2884 13.008C40.7204 13.008 39.1844 13.872 37.6804 15.6C36.2084 17.296 35.0084 19.536 34.0804 22.32C33.1524 25.072 32.6884 27.904 32.6884 30.816C32.6884 34.016 33.9044 35.616 36.3364 35.616C38.6404 35.616 40.7524 34.208 42.6724 31.392L43.6324 31.776C42.4804 33.632 41.0084 35.168 39.2164 36.384C37.4564 37.6 35.4404 38.208 33.1684 38.208C30.8324 38.208 28.9604 37.584 27.5524 36.336C26.1764 35.088 25.4884 33.248 25.4884 30.816C25.4884 28.064 26.1764 25.232 27.5524 22.32C28.9284 19.376 30.8644 16.928 33.3604 14.976C35.8564 13.024 38.6884 12.048 41.8564 12.048C43.6164 12.048 45.0244 12.496 46.0804 13.392C47.1684 14.256 47.7124 15.344 47.7124 16.656C47.7124 17.52 47.5044 18.368 47.0884 19.2C46.6724 20.032 46.0964 20.704 45.3604 21.216C44.6244 21.728 43.8244 21.984 42.9604 21.984C42.1604 21.984 41.5044 21.728 40.9924 21.216C40.4804 20.704 40.2244 20.032 40.2244 19.2C40.2244 17.952 40.6564 16.848 41.5204 15.888C42.3844 14.896 43.4084 14.256 44.5924 13.968C44.0484 13.328 43.2804 13.008 42.2884 13.008Z" fill="#E6645C"/>
<path d="M74.1551 29.76L72.9551 33.264C71.8031 36.56 69.6591 38.208 66.5231 38.208C64.7311 38.208 63.4511 37.68 62.6831 36.624C62.2671 36.016 62.0591 35.264 62.0591 34.368C62.0591 33.344 62.3151 32.08 62.8271 30.576L67.1471 17.616C67.4351 16.752 67.5791 16.064 67.5791 15.552C67.5791 14.816 67.2751 14.448 66.6671 14.448C65.7071 14.448 64.5391 15.424 63.1631 17.376C61.8191 19.328 60.4591 21.904 59.0831 25.104C57.7071 28.272 56.5071 31.616 55.4831 35.136L54.8591 37.536H48.0911L53.8991 16.8C54.0911 16.224 54.1871 15.712 54.1871 15.264C54.1871 14.688 53.9151 14.4 53.3711 14.4C52.7631 14.4 52.2191 14.688 51.7391 15.264C51.2911 15.808 50.8111 16.784 50.2991 18.192L49.3871 20.64H48.4751L49.7711 16.992C50.3791 15.232 51.1951 13.968 52.2191 13.2C53.2431 12.432 54.4911 12.048 55.9631 12.048C58.7151 12.048 60.0911 13.36 60.0911 15.984C60.0911 16.88 59.9631 17.808 59.7071 18.768L58.2191 24.576C59.5311 21.312 60.7791 18.784 61.9631 16.992C63.1791 15.168 64.3951 13.888 65.6111 13.152C66.8591 12.416 68.2351 12.048 69.7391 12.048C72.6191 12.048 74.0591 13.328 74.0591 15.888C74.0591 16.848 73.8511 17.984 73.4351 19.296L68.7311 33.456C68.5391 34.032 68.4431 34.496 68.4431 34.848C68.4431 35.52 68.7471 35.856 69.3551 35.856C69.8671 35.856 70.3631 35.584 70.8431 35.04C71.3551 34.496 71.8671 33.504 72.3791 32.064L73.2431 29.76H74.1551Z" fill="#E6645C"/>
<path d="M98.709 15.84C98.709 18.496 97.221 20.816 94.245 22.8C91.269 24.784 87.813 26.32 83.877 27.408C83.685 28.496 83.589 29.584 83.589 30.672C83.589 32.368 83.893 33.568 84.501 34.272C85.141 34.976 86.069 35.328 87.285 35.328C88.277 35.328 89.397 35.024 90.645 34.416C91.893 33.776 93.109 32.768 94.293 31.392L95.061 31.776C93.909 33.568 92.357 35.088 90.405 36.336C88.485 37.584 86.325 38.208 83.925 38.208C81.717 38.208 79.909 37.616 78.501 36.432C77.093 35.248 76.389 33.584 76.389 31.44C76.389 28.592 77.157 25.648 78.693 22.608C80.229 19.568 82.325 17.056 84.981 15.072C87.637 13.056 90.549 12.048 93.717 12.048C95.189 12.048 96.389 12.384 97.317 13.056C98.245 13.696 98.709 14.624 98.709 15.84ZM92.661 12.96C91.733 12.96 90.677 13.616 89.493 14.928C88.309 16.24 87.221 17.952 86.229 20.064C85.237 22.144 84.501 24.288 84.021 26.496C86.293 25.504 88.053 24.432 89.301 23.28C90.581 22.128 91.589 20.816 92.325 19.344C93.061 17.84 93.429 16.24 93.429 14.544C93.429 13.936 93.365 13.52 93.237 13.296C93.109 13.072 92.917 12.96 92.661 12.96Z" fill="#E6645C"/>
<path d="M122.169 16.32C122.169 18.272 121.225 20.064 119.337 21.696C117.481 23.328 115.097 24.624 112.185 25.584C114.265 25.552 115.993 25.904 117.369 26.64C118.777 27.376 119.481 28.496 119.481 30C119.481 31.28 118.937 32.56 117.849 33.84C116.793 35.12 115.337 36.176 113.481 37.008C111.625 37.808 109.577 38.208 107.337 38.208C104.681 38.208 102.633 37.552 101.193 36.24C99.753 34.896 99.033 32.96 99.033 30.432C99.033 27.68 99.817 24.88 101.385 22.032C102.953 19.152 105.065 16.768 107.721 14.88C110.377 12.992 113.241 12.048 116.313 12.048C118.105 12.048 119.529 12.4 120.585 13.104C121.641 13.808 122.169 14.88 122.169 16.32ZM106.665 26.16C108.457 25.648 110.137 24.864 111.705 23.808C113.273 22.752 114.521 21.472 115.449 19.968C116.409 18.464 116.889 16.832 116.889 15.072C116.889 13.664 116.393 12.96 115.401 12.96C114.441 12.96 113.353 13.568 112.137 14.784C110.953 15.968 109.849 17.584 108.825 19.632C107.833 21.648 107.113 23.824 106.665 26.16ZM113.145 30.144C113.145 28.96 112.921 28.016 112.473 27.312C112.057 26.576 111.481 26.144 110.745 26.016C109.337 26.4 107.929 26.688 106.521 26.88C106.329 28.128 106.233 29.392 106.233 30.672C106.233 32.784 106.505 34.4 107.049 35.52C107.593 36.608 108.329 37.152 109.257 37.152C110.345 37.152 111.257 36.416 111.993 34.944C112.761 33.472 113.145 31.872 113.145 30.144Z" fill="#E6645C"/>
<path d="M146.505 29.76H147.417L146.217 33.264C145.577 35.056 144.681 36.336 143.529 37.104C142.409 37.84 141.193 38.208 139.881 38.208C138.217 38.208 137.033 37.712 136.329 36.72C135.881 36.144 135.657 35.344 135.657 34.32C135.657 33.488 135.801 32.544 136.089 31.488C135.001 33.856 133.785 35.568 132.441 36.624C131.129 37.68 129.673 38.208 128.073 38.208C126.313 38.208 124.969 37.696 124.041 36.672C123.145 35.616 122.697 34.16 122.697 32.304C122.697 29.456 123.449 26.448 124.953 23.28C126.489 20.08 128.425 17.408 130.761 15.264C133.097 13.12 135.385 12.048 137.625 12.048C138.489 12.048 139.177 12.304 139.689 12.816C140.233 13.328 140.553 14.096 140.649 15.12L141.321 12.768C143.881 12.736 146.201 12.496 148.281 12.048L141.993 33.456C141.833 34 141.753 34.448 141.753 34.8C141.753 35.504 142.057 35.856 142.665 35.856C143.785 35.856 144.777 34.592 145.641 32.064L146.505 29.76ZM140.121 16.992C140.153 16.832 140.169 16.592 140.169 16.272C140.169 15.472 140.025 14.864 139.737 14.448C139.481 14.032 139.081 13.824 138.537 13.824C137.449 13.824 136.201 14.8 134.793 16.752C133.417 18.704 132.233 21.152 131.241 24.096C130.281 27.04 129.801 29.888 129.801 32.64C129.801 33.696 129.897 34.464 130.089 34.944C130.313 35.392 130.665 35.616 131.145 35.616C131.849 35.616 132.617 35.136 133.449 34.176C134.313 33.184 135.161 31.776 135.993 29.952C136.857 28.096 137.609 25.904 138.249 23.376L138.009 24.528L140.121 16.992Z" fill="#E6645C"/>
<path d="M188.439 29.76L187.239 33.264C186.087 36.56 183.927 38.208 180.759 38.208C178.903 38.208 177.623 37.632 176.919 36.48C176.567 35.936 176.391 35.216 176.391 34.32C176.391 33.264 176.631 32.016 177.111 30.576L181.431 17.616C181.687 16.784 181.815 16.144 181.815 15.696C181.815 15.056 181.591 14.736 181.143 14.736C179.831 14.736 178.247 16.32 176.391 19.488C174.567 22.624 172.727 27.2 170.871 33.216V33.072L169.623 37.536H162.759L168.615 17.616C168.871 16.784 168.999 16.128 168.999 15.648C168.999 15.04 168.743 14.736 168.231 14.736C166.791 14.736 165.159 16.4 163.335 19.728C161.543 23.056 159.847 27.392 158.247 32.736V32.688L156.999 37.536H150.231L156.087 16.8C156.247 16.256 156.327 15.792 156.327 15.408C156.327 14.736 156.039 14.4 155.463 14.4C154.887 14.4 154.359 14.704 153.879 15.312C153.431 15.888 152.951 16.848 152.439 18.192L151.527 20.64H150.615L151.911 16.992C152.551 15.232 153.431 13.968 154.551 13.2C155.703 12.432 156.983 12.048 158.391 12.048C159.767 12.048 160.759 12.4 161.367 13.104C161.975 13.808 162.279 14.736 162.279 15.888C162.279 16.72 162.135 17.68 161.847 18.768L160.791 22.896C162.359 18.992 163.959 16.208 165.591 14.544C167.255 12.88 169.239 12.048 171.543 12.048C174.071 12.048 175.335 13.296 175.335 15.792C175.335 16.688 175.143 17.856 174.759 19.296L173.895 22.368C175.495 18.56 177.111 15.888 178.743 14.352C180.407 12.816 182.311 12.048 184.455 12.048C185.799 12.048 186.791 12.384 187.431 13.056C188.071 13.728 188.391 14.64 188.391 15.792C188.391 16.848 188.167 18.016 187.719 19.296L183.015 33.456C182.823 34.064 182.727 34.528 182.727 34.848C182.727 35.52 183.031 35.856 183.639 35.856C184.727 35.856 185.735 34.592 186.663 32.064L187.527 29.76H188.439Z" fill="#E6645C"/>
<path d="M191.196 30.288C191.196 27.664 191.788 24.928 192.972 22.08C194.188 19.232 195.964 16.848 198.3 14.928C200.668 13.008 203.484 12.048 206.748 12.048C209.244 12.048 211.164 12.736 212.508 14.112C213.852 15.456 214.524 17.408 214.524 19.968C214.524 22.592 213.916 25.328 212.7 28.176C211.516 31.024 209.74 33.408 207.372 35.328C205.036 37.248 202.236 38.208 198.972 38.208C196.476 38.208 194.556 37.536 193.212 36.192C191.868 34.816 191.196 32.848 191.196 30.288ZM206.508 13.008C205.324 13.008 204.028 14.144 202.62 16.416C201.212 18.688 200.028 21.472 199.068 24.768C198.108 28.064 197.628 31.136 197.628 33.984C197.628 35.136 197.756 35.968 198.012 36.48C198.268 36.992 198.684 37.248 199.26 37.248C200.444 37.248 201.724 36.144 203.1 33.936C204.508 31.728 205.692 28.992 206.652 25.728C207.612 22.432 208.092 19.312 208.092 16.368C208.092 15.12 207.964 14.256 207.708 13.776C207.452 13.264 207.052 13.008 206.508 13.008Z" fill="#E6645C"/>
<path d="M248.09 12.048C250.042 12.048 251.514 12.688 252.506 13.968C253.53 15.216 254.042 17.04 254.042 19.44C254.042 22.064 253.45 24.848 252.266 27.792C251.082 30.704 249.402 33.168 247.226 35.184C245.05 37.2 242.538 38.208 239.69 38.208C238.826 38.208 238.026 38.064 237.29 37.776C236.554 37.52 235.946 37.168 235.466 36.72L233.018 45.888C230.362 45.92 228.058 46.144 226.106 46.56L230.234 31.248C229.082 33.68 227.866 35.456 226.586 36.576C225.338 37.664 223.834 38.208 222.074 38.208C220.378 38.208 219.002 37.632 217.946 36.48C216.89 35.328 216.362 33.6 216.362 31.296C216.362 28.736 216.97 25.952 218.186 22.944C219.434 19.904 221.226 17.328 223.562 15.216C225.898 13.104 228.618 12.048 231.722 12.048C233.354 12.048 234.426 12.576 234.938 13.632L235.082 13.152C235.786 10.432 236.586 8.192 237.482 6.432C238.41 4.64 239.498 3.232 240.746 2.208C242.506 0.736 244.746 0 247.466 0C249.45 0 251.002 0.416 252.122 1.248C253.274 2.08 253.85 3.2 253.85 4.608C253.85 5.664 253.418 6.624 252.554 7.488C251.722 8.352 250.682 8.784 249.434 8.784C248.474 8.784 247.722 8.56 247.178 8.112C246.634 7.664 246.362 7.024 246.362 6.192C246.362 5.136 246.682 4.192 247.322 3.36C247.994 2.528 248.89 1.904 250.01 1.488C249.882 1.296 249.674 1.152 249.386 1.056C249.098 0.928 248.762 0.864 248.378 0.864C247.45 0.864 246.618 1.184 245.882 1.824C245.306 2.336 244.794 3.168 244.346 4.32C243.93 5.44 243.45 7.008 242.906 9.024L240.17 19.2C241.322 16.704 242.538 14.896 243.818 13.776C245.098 12.624 246.522 12.048 248.09 12.048ZM224.954 35.808C225.818 35.808 226.858 34.976 228.074 33.312C229.29 31.616 230.442 29.28 231.53 26.304L234.65 14.832C234.394 14.224 234.09 13.792 233.738 13.536C233.418 13.28 232.97 13.152 232.394 13.152C231.082 13.152 229.69 14.144 228.218 16.128C226.778 18.112 225.562 20.624 224.57 23.664C223.578 26.672 223.082 29.616 223.082 32.496C223.082 34.704 223.706 35.808 224.954 35.808ZM237.77 36.816C239.338 36.816 240.858 35.856 242.33 33.936C243.834 31.984 245.034 29.584 245.93 26.736C246.858 23.856 247.322 21.136 247.322 18.576C247.322 17.104 247.162 16.08 246.842 15.504C246.522 14.896 246.058 14.592 245.45 14.592C244.49 14.592 243.402 15.424 242.186 17.088C241.002 18.752 239.962 20.832 239.066 23.328L235.706 35.856C236.25 36.496 236.938 36.816 237.77 36.816Z" fill="#E6645C"/>
<path d="M287.559 12.048C289.511 12.048 290.983 12.688 291.975 13.968C292.999 15.216 293.511 17.04 293.511 19.44C293.511 22.064 292.919 24.848 291.735 27.792C290.551 30.704 288.871 33.168 286.695 35.184C284.519 37.2 282.007 38.208 279.159 38.208C278.295 38.208 277.495 38.064 276.759 37.776C276.023 37.52 275.415 37.168 274.935 36.72L272.487 45.888C269.831 45.92 267.527 46.144 265.575 46.56L269.703 31.248C268.551 33.68 267.335 35.456 266.055 36.576C264.807 37.664 263.303 38.208 261.543 38.208C259.847 38.208 258.471 37.632 257.415 36.48C256.359 35.328 255.831 33.6 255.831 31.296C255.831 28.736 256.439 25.952 257.655 22.944C258.903 19.904 260.695 17.328 263.031 15.216C265.367 13.104 268.087 12.048 271.191 12.048C272.823 12.048 273.895 12.576 274.407 13.632L274.551 13.152C275.255 10.432 276.055 8.192 276.951 6.432C277.879 4.64 278.967 3.232 280.215 2.208C281.975 0.736 284.215 0 286.935 0C288.919 0 290.471 0.416 291.591 1.248C292.743 2.08 293.319 3.2 293.319 4.608C293.319 5.664 292.887 6.624 292.023 7.488C291.191 8.352 290.151 8.784 288.903 8.784C287.943 8.784 287.191 8.56 286.647 8.112C286.103 7.664 285.831 7.024 285.831 6.192C285.831 5.136 286.151 4.192 286.791 3.36C287.463 2.528 288.359 1.904 289.479 1.488C289.351 1.296 289.143 1.152 288.855 1.056C288.567 0.928 288.231 0.864 287.847 0.864C286.919 0.864 286.087 1.184 285.351 1.824C284.775 2.336 284.263 3.168 283.815 4.32C283.399 5.44 282.919 7.008 282.375 9.024L279.639 19.2C280.791 16.704 282.007 14.896 283.287 13.776C284.567 12.624 285.991 12.048 287.559 12.048ZM264.423 35.808C265.287 35.808 266.327 34.976 267.543 33.312C268.759 31.616 269.911 29.28 270.999 26.304L274.119 14.832C273.863 14.224 273.559 13.792 273.207 13.536C272.887 13.28 272.439 13.152 271.863 13.152C270.551 13.152 269.159 14.144 267.687 16.128C266.247 18.112 265.031 20.624 264.039 23.664C263.047 26.672 262.551 29.616 262.551 32.496C262.551 34.704 263.175 35.808 264.423 35.808ZM277.239 36.816C278.807 36.816 280.327 35.856 281.799 33.936C283.303 31.984 284.503 29.584 285.399 26.736C286.327 23.856 286.791 21.136 286.791 18.576C286.791 17.104 286.631 16.08 286.311 15.504C285.991 14.896 285.527 14.592 284.919 14.592C283.959 14.592 282.871 15.424 281.655 17.088C280.471 18.752 279.431 20.832 278.535 23.328L275.175 35.856C275.719 36.496 276.407 36.816 277.239 36.816Z" fill="#E6645C"/>
</svg>
